{"title":"The.Merry.Gentleman.2008.SWESUB.DVDRip.XviD.-Zen_Bud","uid":5766878,"size":867079878,"categoryP":"video","categoryS":"movies","magnet":"?xt=urn:btih:1dfabc40391e2a80215e768fb612ed2f98f93e6e&amp;dn=The.Merry.Gentleman.2008.SWESUB.DVDRip.XviD.-Zen_Bud&amp;tr=udp%3A%2F%2Ftracker.openbittorrent.com%3A80&amp;tr=udp%3A%2F%2Fopen.demonii.com%3A1337&amp;tr=udp%3A%2F%2Ftracker.coppersurfer.tk%3A6969&amp;tr=udp%3A%2F%2Fexodus.desync.com%3A6969","seeders":0,"leechers":1,"uploader":"Zen_Bud","files":-1,"time":1281946014,"description":"General\nComplete name                    : The.Merry.Gentleman.2008.avi\nFormat                           : AVI\nFile size                        : 827 MiB\nDuration                         : 1h 32mn\nOverall bit rate                 : 1 247 Kbps\n\nVideo\n\nFormat                           : MPEG-4 Visual\nCodec ID/Hint                    : XviD\nDuration                         : 1h 32mn\nBit rate                         : 1 122 Kbps\nWidth                            : 720 pixels\nHeight                           : 430 pixels\nDisplay aspect ratio             : 2.35:1\nStream size                      : 744 MiB (90%)\nWriting library                  : XviD 1.1.2 (UTC 2006-11-01)\n\nAudio\n\nFormat                           : MPEG Audio\nCodec ID/Hint                    : MP3\nDuration                         : 1h 32mn\nBit rate                         : 112 Kbps\nChannel(s)                       : 2 channels\nSampling rate                    : 48.0 KHz\nStream size                      : 74.3 MiB (9%)\n\n\n","torrent":{"xt":"urn:btih:1dfabc40391e2a80215e768fb612ed2f98f93e6e","amp;dn":"The.Merry.Gentleman.2008.SWESUB.DVDRip.XviD.-Zen_Bud","amp;tr":["udp%3A%2F%2Ftracker.openbittorrent.com%3A80","udp%3A%2F%2Fopen.demonii.com%3A1337","udp%3A%2F%2Ftracker.coppersurfer.tk%3A6969","udp%3A%2F%2Fexodus.desync.com%3A6969"],"infoHash":"1dfabc40391e2a80215e768fb612ed2f98f93e6e","infoHashBuffer":{"type":"Buffer","data":[29,250,188,64,57,30,42,128,33,94,118,143,182,18,237,47,152,249,62,110]},"announce":[],"urlList":[]}}